:FULLY-SPECIFIED
:FORCE-ALL-JOINTS-BE-3DOF
:DEGREES
204
root 4.89014 15.0999 -25.4027 7.04497 -1.02364 5.93173
lfemur 7.50813 -2.19265 0.64328
ltibia 5.64985 0 0
lfoot -34.4804 -14.5652 0
ltoes 48.7649 0 0
rfemur -29.9128 -18.8528 -9.31257
rtibia 49.4666 0 0
rfoot -27.5528 17.0283 0
rtoes 60.124 0 0
lowerback -3.73015 -2.00396 -0.328562
upperback -0.493133 -2.55903 -7.80654
thorax 1.22866 -1.28159 -8.11396
lowerneck -11.9623 0.617505 6.12414
upperneck 3.39563 -0.276598 2.61712
head 3.2093 0.0715282 -0.236985
lclavicle -1.06689e-14 3.7112e-14 0
lhumerus -58.0259 -45.5111 114.013
lradius 54.4962 0 0
lwrist 28.6357 0 0
lhand 40.1643 32.6765 0
lfingers 7.12502 0 0
lthumb 62.5775 43.8095 0
rclavicle -1.06689e-14 3.7112e-14 0
rhumerus -6.56093 5.06776 -6.82851
rradius 74.3823 0 0
rwrist -32.8142 0 0
rhand 6.65031 -36.5327 0
rfingers 7.12502 0 0
rthumb 31.3765 -457.904 0
205
root 4.8648 15.0796 -25.4189 7.12631 -1.14431 5.93031
lfemur 7.59108 -2.66631 0.653407
ltibia 5.42752 0 0
lfoot -35.0098 -13.9553 0
ltoes 49.1171 0 0
rfemur -30.4467 -19.2905 -9.14392
rtibia 49.9876 0 0
rfoot -27.4892 17.4804 0
rtoes 60.2562 0 0
lowerback -3.46467 -1.89028 -0.398496
upperback -0.55906 -2.42278 -7.79411
thorax 1.03049 -1.21729 -8.04145
lowerneck -11.7572 0.622305 6.30188
upperneck 3.4094 -0.275363 2.54353
head 3.17515 0.0705311 -0.292163
lclavicle -4.99708e-15 4.17956e-14 0
lhumerus -58.3628 -45.7122 114.461
lradius 54.5063 0 0
lwrist 28.1389 0 0
lhand 40.3146 32.2559 0
lfingers 7.12502 0 0
lthumb 62.7225 43.3674 0
rclavicle -4.99708e-15 4.17956e-14 0
rhumerus -5.98423 -2.51187 -7.22713
rradius 72.0205 0 0
rwrist -32.1296 0 0
rhand -4.06331 -42.5859 0
rfingers 7.12502 0 0
rthumb 21.155 -482.842 0
206
root 4.8392 15.0617 -25.4372 7.21504 -1.18887 5.89476
lfemur 7.56836 -3.18525 0.716491
ltibia 5.28739 0 0
lfoot -35.4326 -13.3238 0
ltoes 49.4616 0 0
rfemur -30.9614 -19.7135 -8.92916
rtibia 50.5081 0 0
rfoot -27.4037 17.8477 0
rtoes 60.3314 0 0
lowerback -3.1555 -1.77133 -0.480868
upperback -0.628751 -2.28121 -7.75555
thorax 0.806714 -1.1507 -7.93136
lowerneck -11.536 0.607627 6.46475
upperneck 3.42594 -0.296599 2.47221
head 3.13965 0.0582694 -0.34547
lclavicle 1.15827e-15 4.62567e-14 0
lhumerus -58.7052 -45.8991 114.958
lradius 54.5238 0 0
lwrist 27.523 0 0
lhand 40.4108 31.7555 0
lfingers 7.12502 0 0
lthumb 62.82 42.8854 0
rclavicle 1.15827e-15 4.62567e-14 0
rhumerus -5.75531 -10.5866 -8.25936
rradius 69.8391 0 0
rwrist -31.096 0 0
rhand -15.8213 -49.0286 0
rfingers 7.12502 0 0
rthumb 9.94061 -510.872 0
207
root 4.8142 15.0474 -25.4575 7.30838 -1.15683 5.80982
lfemur 7.40092 -3.65478 0.845847
ltibia 5.30884 0 0
lfoot -35.6977 -12.6895 0
ltoes 49.685 0 0
rfemur -31.4317 -20.0989 -8.65722
rtibia 50.9908 0 0
rfoot -27.3072 18.1143 0
rtoes 60.3523 0 0
lowerback -2.81394 -1.65955 -0.565718
upperback -0.693637 -2.1499 -7.68057
thorax 0.571036 -1.08928 -7.77976
lowerneck -11.3162 0.583466 6.59999
upperneck 3.44218 -0.32637 2.40166
head 3.1051 0.0414352 -0.394266
lclavicle 7.32258e-15 5.01188e-14 0
lhumerus -59.0303 -46.0539 115.477
lradius 54.5556 0 0
lwrist 26.8366 0 0
lhand 40.3811 31.1791 0
lfingers 7.12502 0 0
lthumb 62.8047 42.4045 0
rclavicle 7.32258e-15 5.01188e-14 0
rhumerus -5.87406 -18.5252 -9.86477
rradius 68.0384 0 0
rwrist -29.7002 0 0
rhand -27.7472 -55.344 0
rfingers 7.12502 0 0
rthumb -1.42952 -540.78 0
208
root 4.79045 15.0375 -25.4795 7.40337 -1.05962 5.6583
lfemur 7.04901 -3.94729 1.05381
ltibia 5.58795 0 0
lfoot -35.7585 -12.0679 0
ltoes 49.6376 0 0
rfemur -31.8363 -20.4262 -8.3145
rtibia 51.3948 0 0
rfoot -27.2167 18.2787 0
rtoes 60.333 0 0
lowerback -2.45525 -1.57045 -0.639123
upperback -0.742728 -2.04832 -7.55772
thorax 0.341395 -1.04232 -7.58411
lowerneck -11.1201 0.56635 6.69556
upperneck 3.45378 -0.342339 2.32777
head 3.07415 0.0307799 -0.436323
lclavicle 1.28985e-14 5.29867e-14 0
lhumerus -59.3128 -46.1573 115.986
lradius 54.6105 0 0
lwrist 26.1514 0 0
lhand 40.1352 30.5325 0
lfingers 7.12502 0 0
lthumb 62.5943 41.9768 0
rclavicle 1.28985e-14 5.29867e-14 0
rhumerus -6.28431 -25.5526 -11.8891
rradius 66.8236 0 0
rwrist -27.9515 0 0
rhand -38.7246 -60.8964 0
rfingers 7.12502 0 0
rthumb -11.8893 -571.042 0
209
root 4.76841 15.0327 -25.5031 7.49687 -0.920629 5.42104
lfemur 6.47212 -3.90221 1.35173
ltibia 6.23746 0 0
lfoot -35.573 -11.4709 0
ltoes 49.1329 0 0
rfemur -32.1585 -20.6772 -7.8849
rtibia 51.6762 0 0
rfoot -27.1549 18.3535 0
rtoes 60.2987 0 0
lowerback -2.09867 -1.52259 -0.683192
upperback -0.762607 -1.99976 -7.37435
thorax 0.139939 -1.02094 -7.34335
lowerneck -10.9743 0.579338 6.74013
upperneck 3.45514 -0.313759 2.24392
head 3.04976 0.041114 -0.469825
lclavicle 1.71659e-14 5.44474e-14 0
lhumerus -59.5252 -46.1894 116.444
lradius 54.6996 0 0
lwrist 25.5621 0 0
lhand 39.5639 29.8235 0
lfingers 7.12502 0 0
lthumb 62.0895 41.6664 0
rclavicle 1.71659e-14 5.44474e-14 0
rhumerus -6.87379 -30.7492 -14.0845
rradius 66.4049 0 0
rwrist -25.8818 0 0
rhand -47.3972 -64.9304 0
rfingers 7.12502 0 0
rthumb -20.1438 -599.828 0
210
root 4.74836 15.0333 -25.5282 7.5855 -0.77519 5.07698
lfemur 5.62906 -3.32602 1.74998
ltibia 7.38682 0 0
lfoot -35.1036 -10.9072 0
ltoes 47.948 0 0
rfemur -32.3856 -20.8365 -7.34977
rtibia 51.7877 0 0
rfoot -27.1501 18.3657 0
rtoes 60.2859 0 0
lowerback -1.7674 -1.53765 -0.676072
upperback -0.737438 -2.03137 -7.11667
thorax -0.00696293 -1.03812 -7.05782
lowerneck -10.9099 0.652023 6.7231
upperneck 3.43937 -0.201483 2.1409
head 3.0352 0.0913078 -0.493372
lclavicle 1.92821e-14 5.40694e-14 0
lhumerus -59.6377 -46.1292 116.804
lradius 54.8358 0 0
lwrist 25.1865 0 0
lhand 38.5393 29.062 0
lfingers 7.12502 0 0
lthumb 61.1737 41.5482 0
rclavicle 1.92821e-14 5.40694e-14 0
rhumerus -7.47416 -33.0518 -16.1092
rradius 66.9971 0 0
rwrist -23.5455 0 0
rhand -52.1685 -66.5716 0
rfingers 7.12502 0 0
rthumb -24.669 -624.998 0
211
root 4.74583 15.034 -25.5317 7.59547 -0.758756 5.0199
lfemur 5.49413 -3.19278 1.81984
ltibia 7.59289 0 0
lfoot -35.0067 -10.8437 0
ltoes 47.7235 0 0
rfemur -32.4051 -20.8444 -7.26755
rtibia 51.7843 0 0
rfoot -27.1545 18.3613 0
rtoes 60.286 0 0
lowerback -1.72669 -1.5482 -0.66966
upperback -0.727938 -2.04653 -7.07487
thorax -0.0191359 -1.04568 -7.01552
lowerneck -10.9118 0.670058 6.71424
upperneck 3.43611 -0.175107 2.12534
head 3.03492 0.103498 -0.49522
lclavicle 1.92784e-14 5.37828e-14 0
lhumerus -59.6414 -46.1109 116.838
lradius 54.8583 0 0
lwrist 25.1653 0 0
lhand 38.3479 28.956 0
lfingers 7.12502 0 0
lthumb 61.002 41.5581 0
rclavicle 1.92784e-14 5.37828e-14 0
rhumerus -7.55644 -32.9818 -16.3536
rradius 67.2064 0 0
rwrist -23.1798 0 0
rhand -52.3358 -66.4832 0
rfingers 7.12502 0 0
rthumb -24.8229 -627.899 0
212
root 4.73857 15.0372 -25.5417 7.6197 -0.714906 4.84318
lfemur 5.09034 -2.76463 2.05538
ltibia 8.23871 0 0
lfoot -34.6762 -10.6914 0
ltoes 47.0339 0 0
rfemur -32.4463 -20.8436 -7.0187
rtibia 51.7566 0 0
rfoot -27.1668 18.3345 0
rtoes 60.2802 0 0
lowerback -1.61104 -1.59025 -0.64753
upperback -0.692182 -2.10538 -6.94688
thorax -0.0457067 -1.07483 -6.88809
lowerneck -10.9297 0.731972 6.68091
upperneck 3.42763 -0.0856321 2.08005
head 3.03703 0.145207 -0.49847
lclavicle 1.89115e-14 5.26178e-14 0
lhumerus -59.64 -46.0465 116.92
lradius 54.9254 0 0
lwrist 25.1336 0 0
lhand 37.7288 28.6438 0
lfingers 7.12502 0 0
lthumb 60.4464 41.6191 0
rclavicle 1.89115e-14 5.26178e-14 0
rhumerus -7.83481 -32.311 -17.0788
rradius 68.0024 0 0
rwrist -21.9858 0 0
rhand -52.351 -65.8544 0
rfingers 7.12502 0 0
rthumb -24.8156 -635.901 0
213
root 4.72727 15.0438 -25.5579 7.65161 -0.647667 4.54294
lfemur 4.42063 -2.01188 2.4794
ltibia 9.34844 0 0
lfoot -34.0699 -10.4952 0
ltoes 45.8646 0 0
rfemur -32.486 -20.8056 -6.6051
rtibia 51.6816 0 0
rfoot -27.187 18.2674 0
rtoes 60.2612 0 0
lowerback -1.43076 -1.6748 -0.606225
upperback -0.622715 -2.2219 -6.73136
thorax -0.0745477 -1.13228 -6.67686
lowerneck -10.9777 0.844674 6.61474
upperneck 3.41506 0.0761045 2.00764
head 3.04475 0.22103 -0.500229
lclavicle 1.77752e-14 5.02344e-14 0
lhumerus -59.6176 -45.9248 117.024
lradius 55.0365 0 0
lwrist 25.1284 0 0
lhand 36.6419 28.1383 0
lfingers 7.12502 0 0
lthumb 59.4704 41.7659 0
rclavicle 1.77752e-14 5.02344e-14 0
rhumerus -8.34432 -30.5117 -18.2668
rradius 69.5683 0 0
rwrist -19.8884 0 0
rhand -51.6174 -64.2685 0
rfingers 7.12502 0 0
rthumb -24.0734 -647.966 0
214
root 4.71287 15.0548 -25.5794 7.68716 -0.555524 4.1211
lfemur 3.4899 -0.92202 3.09324
ltibia 10.9233 0 0
lfoot -33.1695 -10.2839 0
ltoes 44.2138 0 0
rfemur -32.5041 -20.7122 -6.0355
rtibia 51.5409 0 0
rfoot -27.2164 18.1443 0
rtoes 60.2241 0 0
lowerback -1.197 -1.80672 -0.543467
upperback -0.516649 -2.40195 -6.43034
thorax -0.0972559 -1.2208 -6.38605
lowerneck -11.0642 1.00867 6.50966
upperneck 3.39843 0.31079 1.91132
head 3.05968 0.331401 -0.498336
lclavicle 1.56329e-14 4.64499e-14 0
lhumerus -59.5617 -45.739 117.13
lradius 55.19 0 0
lwrist 25.1718 0 0
lhand 35.0838 27.4584 0
lfingers 7.12502 0 0
lthumb 58.0707 42.0171 0
rclavicle 1.56329e-14 4.64499e-14 0
rhumerus -9.10376 -27.2743 -19.8916
rradius 71.9959 0 0
rwrist -16.9068 0 0
rhand -49.7172 -61.4811 0
rfingers 7.12502 0 0
rthumb -22.1971 -663.077 0
215
root 4.69655 15.0705 -25.6055 7.72487 -0.431422 3.5854
lfemur 2.305 0.500212 3.87672
ltibia 12.9416 0 0
lfoot -31.9804 -10.07 0
ltoes 42.0929 0 0
rfemur -32.484 -20.5562 -5.32556
rtibia 51.3204 0 0
rfoot -27.2581 17.9522 0
rtoes 60.1659 0 0
lowerback -0.92172 -1.98471 -0.458162
upperback -0.375667 -2.6433 -6.04923
thorax -0.109154 -1.33925 -6.02274
lowerneck -11.1917 1.21805 6.36196
upperneck 3.37669 0.610634 1.79498
head 3.08183 0.472599 -0.491359
lclavicle 1.24181e-14 4.12389e-14 0
lhumerus -59.4633 -45.4865 117.227
lradius 55.3837 0 0
lwrist 25.2709 0 0
lhand 33.0875 26.629 0
lfingers 7.12502 0 0
lthumb 56.2766 42.3752 0
rclavicle 1.24181e-14 4.12389e-14 0
rhumerus -10.1156 -22.5073 -21.9191
rradius 75.2849 0 0
rwrist -13.1545 0 0
rhand -46.4105 -57.4193 0
rfingers 7.12502 0 0
rthumb -18.9608 -680.238 0
216
root 4.67973 15.0907 -25.635 7.76582 -0.262767 2.94935
lfemur 0.874732 2.23287 4.7882
ltibia 15.3585 0 0
lfoot -30.5316 -9.84987 0
ltoes 39.5259 0 0
rfemur -32.4124 -20.3404 -4.49777
rtibia 51.0107 0 0
rfoot -27.3166 17.6806 0
rtoes 60.0862 0 0
lowerback -0.617706 -2.20135 -0.350394
upperback -0.206017 -2.93562 -5.59681
thorax -0.10929 -1.4825 -5.59689
lowerneck -11.3571 1.46053 6.17023
upperneck 3.3477 0.959373 1.66316
head 3.10955 0.636748 -0.478602
lclavicle 8.23393e-15 3.47332e-14 0
lhumerus -59.3169 -45.1694 117.309
lradius 55.6146 0 0
lwrist 25.4179 0 0
lhand 30.7229 25.6808 0
lfingers 7.12502 0 0
lthumb 54.1505 42.8268 0
rclavicle 8.23393e-15 3.47332e-14 0
rhumerus -11.3662 -16.3372 -24.3074
rradius 79.3435 0 0
rwrist -8.8393 0 0
rhand -41.6363 -52.1822 0
rfingers 7.12502 0 0
rthumb -14.3129 -698.471 0
